Coordinates
version=1
nRows=10
nColumns=40
inDegrees=yes

Units are S.I. units (second, meters, Newtons, ...)
If the header above contains a line with 'inDegrees', this indicates whether rotational values are in degrees (yes) or radians (no).

endheader
time	pelvis_tilt	pelvis_list	pelvis_rotation	pelvis_tx	pelvis_ty	pelvis_tz	hip_flexion_r	hip_adduction_r	hip_rotation_r	knee_angle_r	knee_angle_r_beta	ankle_angle_r	subtalar_angle_r	mtp_angle_r	hip_flexion_l	hip_adduction_l	hip_rotation_l	knee_angle_l	knee_angle_l_beta	ankle_angle_l	subtalar_angle_l	mtp_angle_l	lumbar_extension	lumbar_bending	lumbar_rotation	arm_flex_r	arm_add_r	arm_rot_r	elbow_flex_r	pro_sup_r	wrist_flex_r	wrist_dev_r	arm_flex_l	arm_add_l	arm_rot_l	elbow_flex_l	pro_sup_l	wrist_flex_l	wrist_dev_l
      0.25000000	    -16.48471179	     -6.47788232	     20.57708670	     -1.35739851	      0.93073552	      0.24871196	     69.41119730	    -15.31125118	     -8.78103024	     57.99311895	      1.01217087	      6.24638829	      0.00000000	      0.00000000	     -9.25428166	    -11.38377772	     18.73252707	     28.49710955	      0.49736839	    -19.08888114	      0.00000000	      0.00000000	    -12.99574067	     14.63097826	    -17.98937174	    -71.39106139	     -9.59232104	    -31.18352573	     80.61662494	     89.60068185	      0.00000000	      0.00000000	     67.58079066	    -18.06444987	      1.28264109	    130.34205337	     33.50667220	      0.00000000	      0.00000000
      0.25500000	    -16.23000632	     -5.91685359	     20.16687502	     -1.32315628	      0.93377255	      0.24816815	     67.57768196	    -15.19951425	     -9.09870875	     52.06116999	      0.90863883	      4.41459178	      0.00000000	      0.00000000	    -10.19270043	    -10.72510635	     19.38597511	     30.24747000	      0.52791794	    -19.74633080	      0.00000000	      0.00000000	    -13.18358942	     14.33461528	    -17.99767492	    -70.57170945	     -9.36502432	    -31.67604261	     80.92109344	     89.58948077	      0.00000000	      0.00000000	     64.39736794	    -19.56005526	      1.62639419	    131.47537373	     33.62090827	      0.00000000	      0.00000000
      0.26000000	    -15.95049300	     -5.34493832	     19.77640691	     -1.28907130	      0.93667837	      0.24796639	     65.57809415	    -15.02183153	     -9.45601097	     46.17438726	      0.80589509	      2.38379753	      0.00000000	      0.00000000	    -10.83794054	    -10.03519068	     19.86695528	     32.60140258	      0.56900182	    -19.85272070	      0.00000000	      0.00000000	    -13.45408181	     13.99074685	    -18.03764338	    -69.50070117	     -9.26494712	    -31.97768756	     81.26727883	     89.57520696	      0.00000000	      0.00000000	     60.88170402	    -21.12030224	      2.02479015	    132.29018714	     33.72630552	      0.00000000	      0.00000000
      0.26500000	    -15.64410084	     -4.77135063	     19.37136182	     -1.25511145	      0.93937174	      0.24813501	     63.46716608	    -14.75566007	     -9.83499564	     40.46010042	      0.70616197	      0.20268427	      0.00000000	      0.00000000	    -11.22285232	     -9.33832911	     20.09532171	     35.48092002	      0.61925888	    -19.56497853	      0.00000000	      0.00000000	    -13.80771137	     13.60083236	    -18.08074461	    -68.21261998	     -9.29657554	    -32.08460429	     81.67770879	     89.55772663	      0.00000000	      0.00000000	     57.07954566	    -22.70189339	      2.42672420	    132.72373017	     34.23041983	      0.00000000	      0.00000000
      0.27000000	    -15.31591043	     -4.19894151	     18.92483370	     -1.22125766	      0.94178022	      0.24866505	     61.31529893	    -14.39943879	    -10.22126180	     35.07087577	      0.61210225	     -2.05945959	      0.00000000	      0.00000000	    -11.37356427	     -8.64668112	     20.02941415	     38.79364909	      0.67707691	    -19.05055954	      0.00000000	      0.00000000	    -14.23570035	     13.16145632	    -18.10547689	    -66.73829446	     -9.45529824	    -32.00372343	     82.17141209	     89.53768563	      0.00000000	      0.00000000	     53.03060874	    -24.25587269	      2.79341620	    132.81735188	     34.28688636	      0.00000000	      0.00000000
      0.27500000	    -14.97849149	     -3.62803603	     18.42048045	     -1.18751301	      0.94384583	      0.24951264	     59.20454400	    -13.97072286	    -10.61288479	     30.17547825	      0.52666145	     -4.30946028	      0.00000000	      0.00000000	    -11.30356732	     -7.96359090	     19.66808179	     42.44922464	      0.74087873	    -18.45584579	      0.00000000	      0.00000000	    -14.71952307	     12.66882785	    -18.09987989	    -65.10271875	     -9.73201942	    -31.74848559	     82.76235731	     89.51377648	      0.00000000	      0.00000000	     48.78108315	    -25.72281700	      3.06268469	    132.49283041	     34.82999628	      0.00000000	      0.00000000
      0.28000000	    -14.64989029	     -3.06535223	     17.85457055	     -1.15390634	      0.94552791	      0.25061024	     57.21797870	    -13.49515873	    -11.02699293	     25.93680876	      0.45268271	     -6.43561522	      0.00000000	      0.00000000	    -11.01026467	     -7.29453914	     19.04174787	     46.37257301	      0.80935408	    -17.87811116	      0.00000000	      0.00000000	    -15.23164496	     12.12856135	    -18.06090076	    -63.32165826	    -10.11403707	    -31.33998040	     83.45819624	     89.48830710	      0.00000000	      0.00000000	     44.37157855	    -27.04049104	      3.19825056	    131.80401632	     35.14049592	      0.00000000	      0.00000000
      0.28500000	    -14.34858582	     -2.53001986	     17.23576334	     -1.12048484	      0.94680606	      0.25188004	     55.42288270	    -12.99326581	    -11.49438591	     22.48115893	      0.39237024	     -8.32664565	      0.00000000	      0.00000000	    -10.47976520	     -6.65699004	     18.20042711	     50.50727025	      0.88151816	    -17.35512083	      0.00000000	      0.00000000	    -15.74091653	     11.56270600	    -17.99111257	    -61.40085295	    -10.58861033	    -30.80067004	     84.25661759	     89.45980549	      0.00000000	      0.00000000	     39.85180185	    -28.14255693	      3.16609822	    130.76664686	     35.11178124	      0.00000000	      0.00000000
      0.29000000	    -14.08875661	     -2.05361211	     16.58358747	     -1.08730103	      0.94767741	      0.25324317	     53.85731940	    -12.47329196	    -12.04355338	     19.87548426	      0.34689264	     -9.89273644	      0.00000000	      0.00000000	     -9.69470538	     -6.08393972	     17.20441045	     54.81482895	      0.95669924	    -16.87112505	      0.00000000	      0.00000000	    -16.21822102	     11.01035348	    -17.89773938	    -59.33800475	    -11.14483015	    -30.15263664	     85.14795337	     89.43309507	      0.00000000	      0.00000000	     35.28419353	    -28.96522963	      2.92966526	    129.31805082	     35.74916154	      0.00000000	      0.00000000
      0.29500000	    -13.87798432	     -1.67100486	     15.92299699	     -1.05439589	      0.94815126	      0.25462574	     52.52746300	    -11.93366554	    -12.68230927	     18.12579134	      0.31635474	    -11.07419737	      0.00000000	      0.00000000	     -8.64456675	     -5.61472698	     16.11997030	     59.26655308	      1.03439649	    -16.37222223	      0.00000000	      0.00000000	    -16.64113885	     10.51703231	    -17.78854455	    -57.12582233	    -11.77060082	    -29.41570319	     86.11627382	     89.40402073	      0.00000000	      0.00000000	     30.73056737	    -29.46106956	      2.49999978	    127.54660827	     36.05931955	      0.00000000	      0.00000000
